<svg width="2326" height="2284" viewBox="0 0 2326 2284" fill="none" xmlns="http://www.w3.org/2000/svg">
<g filter="url(#filter0_d_4_214)">
<line x1="1575" y1="160.411" x2="1780.65" y2="160.411" stroke="#DD6729" stroke-width="4"/>
</g>
<g filter="url(#filter1_d_4_214)">
<line x1="2116.35" y1="160.411" x2="2322" y2="160.411" stroke="#EF631A" stroke-width="4"/>
</g>
<g opacity="0.8" filter="url(#filter2_d_4_214)">
<path d="M1864.48 316.877L1777.31 160.938L1864.48 4.99997H2038.56L2125.74 160.938L2038.56 316.877H1864.48Z" stroke="#2B3A46" stroke-width="10" shape-rendering="crispEdges"/>
</g>
<g filter="url(#filter3_d_4_214)">
<line x1="2074.01" y1="79.2054" x2="2279.66" y2="79.2054" stroke="#2B3A46" stroke-width="4"/>
</g>
<g filter="url(#filter4_d_4_214)">
<line x1="2074.01" y1="250.986" x2="2279.66" y2="250.986" stroke="#2B3A46" stroke-width="4"/>
</g>
<g filter="url(#filter5_d_4_214)">
<line x1="1620.36" y1="250.986" x2="1826.02" y2="250.986" stroke="#2B3A46" stroke-width="4"/>
</g>
<g filter="url(#filter6_d_4_214)">
<line x1="1632.46" y1="54.2191" x2="1838.11" y2="54.2191" stroke="#2B3A46" stroke-width="4"/>
</g>
<g filter="url(#filter7_d_4_214)">
<path d="M1891.94 163.42V148.84C1896.2 151.6 1900.46 153.73 1904.72 155.23C1908.98 156.73 1913.12 157.48 1917.14 157.48C1923.44 157.48 1927.91 155.62 1930.55 151.9C1933.25 148.18 1934.6 142.96 1934.6 136.24V55.96H1948.64V136.24C1948.64 144.46 1947.38 151.15 1944.86 156.31C1942.4 161.41 1938.86 165.16 1934.24 167.56C1929.68 169.96 1924.28 171.16 1918.04 171.16C1913.18 171.16 1908.59 170.44 1904.27 169C1900.01 167.5 1895.9 165.64 1891.94 163.42Z" fill="#2B3A46"/>
<path d="M1891.94 163.42H1890.94V164.006L1891.46 164.292L1891.94 163.42ZM1891.94 148.84L1892.49 148.001L1890.94 147.001V148.84H1891.94ZM1904.72 155.23L1905.06 154.287L1904.72 155.23ZM1930.55 151.9L1929.75 151.313L1929.74 151.321L1930.55 151.9ZM1934.6 55.96V54.96H1933.6V55.96H1934.6ZM1948.64 55.96H1949.64V54.96H1948.64V55.96ZM1944.86 156.31L1943.97 155.871L1943.96 155.876L1944.86 156.31ZM1934.24 167.56L1933.78 166.673L1933.78 166.675L1934.24 167.56ZM1904.27 169L1903.94 169.943L1903.95 169.946L1903.96 169.949L1904.27 169ZM1892.94 163.42V148.84H1890.94V163.42H1892.94ZM1891.4 149.679C1895.72 152.477 1900.05 154.644 1904.39 156.173L1905.06 154.287C1900.88 152.816 1896.69 150.723 1892.49 148.001L1891.4 149.679ZM1904.39 156.173C1908.75 157.706 1913 158.48 1917.14 158.48V156.48C1913.25 156.48 1909.22 155.754 1905.06 154.287L1904.39 156.173ZM1917.14 158.48C1923.64 158.48 1928.48 156.556 1931.37 152.479L1929.74 151.321C1927.35 154.684 1923.25 156.48 1917.14 156.48V158.48ZM1931.36 152.487C1934.23 148.534 1935.6 143.078 1935.6 136.24H1933.6C1933.6 142.842 1932.28 147.826 1929.75 151.313L1931.36 152.487ZM1935.6 136.24V55.96H1933.6V136.24H1935.6ZM1934.6 56.96H1948.64V54.96H1934.6V56.96ZM1947.64 55.96V136.24H1949.64V55.96H1947.64ZM1947.64 136.24C1947.64 144.369 1946.4 150.894 1943.97 155.871L1945.76 156.749C1948.37 151.406 1949.64 144.551 1949.64 136.24H1947.64ZM1943.96 155.876C1941.59 160.799 1938.2 164.381 1933.78 166.673L1934.71 168.447C1939.53 165.939 1943.22 162.021 1945.77 156.744L1943.96 155.876ZM1933.78 166.675C1929.39 168.985 1924.16 170.16 1918.04 170.16V172.16C1924.41 172.16 1929.98 170.935 1934.71 168.445L1933.78 166.675ZM1918.04 170.16C1913.29 170.16 1908.8 169.455 1904.59 168.051L1903.96 169.949C1908.39 171.425 1913.08 172.16 1918.04 172.16V170.16ZM1904.61 168.057C1900.4 166.576 1896.34 164.74 1892.43 162.548L1891.46 164.292C1895.47 166.54 1899.63 168.424 1903.94 169.943L1904.61 168.057Z" fill="#2B3A46"/>
</g>
<g filter="url(#filter8_d_4_214)">
<path d="M1995.04 245.16C1985.08 245.16 1976.5 242.67 1969.3 237.69C1962.1 232.65 1956.55 225.69 1952.65 216.81C1948.75 207.87 1946.8 197.52 1946.8 185.76C1946.8 173.22 1948.9 162.66 1953.1 154.08C1957.36 145.5 1963.12 139.02 1970.38 134.64C1977.7 130.2 1985.92 127.98 1995.04 127.98C2007.1 127.98 2016.79 131.01 2024.11 137.07C2031.49 143.07 2036.56 150.9 2039.32 160.56L2024.2 163.62C2021.86 156.6 2018.11 151.02 2012.95 146.88C2007.85 142.68 2001.88 140.58 1995.04 140.58C1989.1 140.58 1983.61 142.29 1978.57 145.71C1973.59 149.07 1969.57 154.11 1966.51 160.83C1963.45 167.55 1961.92 175.86 1961.92 185.76C1961.92 194.76 1963.12 202.77 1965.52 209.79C1967.98 216.81 1971.64 222.33 1976.5 226.35C1981.42 230.37 1987.6 232.38 1995.04 232.38C2003.98 232.38 2011.06 229.98 2016.28 225.18C2021.56 220.38 2024.2 214.08 2024.2 206.28H2039.5C2039.5 214.38 2037.64 221.34 2033.92 227.16C2030.2 232.92 2024.98 237.36 2018.26 240.48C2011.6 243.6 2003.86 245.16 1995.04 245.16Z" fill="#EF631A"/>
<path d="M1969.3 237.69L1968.72 238.509L1968.73 238.512L1969.3 237.69ZM1952.65 216.81L1951.73 217.21L1951.73 217.212L1952.65 216.81ZM1953.1 154.08L1952.2 153.635L1952.2 153.64L1953.1 154.08ZM1970.38 134.64L1970.89 135.496L1970.89 135.495L1970.38 134.64ZM2024.11 137.07L2023.47 137.84L2023.47 137.846L2024.11 137.07ZM2039.32 160.56L2039.51 161.54L2040.57 161.326L2040.28 160.285L2039.32 160.56ZM2024.2 163.62L2023.25 163.936L2023.53 164.776L2024.39 164.6L2024.2 163.62ZM2012.95 146.88L2012.31 147.652L2012.32 147.66L2012.95 146.88ZM1978.57 145.71L1979.12 146.539L1979.13 146.537L1978.57 145.71ZM1966.51 160.83L1967.42 161.244L1966.51 160.83ZM1965.52 209.79L1964.57 210.114L1964.57 210.121L1965.52 209.79ZM1976.5 226.35L1975.86 227.121L1975.86 227.124L1976.5 226.35ZM2016.28 225.18L2015.6 224.44L2015.6 224.444L2016.28 225.18ZM2024.2 206.28V205.28H2023.2V206.28H2024.2ZM2039.5 206.28H2040.5V205.28H2039.5V206.28ZM2033.92 227.16L2034.76 227.703L2034.76 227.699L2033.92 227.16ZM2018.26 240.48L2017.83 239.573L2017.83 239.574L2018.26 240.48ZM1995.04 244.16C1985.25 244.16 1976.87 241.716 1969.86 236.868L1968.73 238.512C1976.12 243.624 1984.9 246.16 1995.04 246.16V244.16ZM1969.87 236.871C1962.83 231.947 1957.39 225.138 1953.56 216.408L1951.73 217.212C1955.7 226.242 1961.36 233.353 1968.72 238.509L1969.87 236.871ZM1953.56 216.41C1949.73 207.619 1947.8 197.41 1947.8 185.76H1945.8C1945.8 197.63 1947.76 208.121 1951.73 217.21L1953.56 216.41ZM1947.8 185.76C1947.8 173.327 1949.88 162.927 1953.99 154.52L1952.2 153.64C1947.91 162.393 1945.8 173.113 1945.8 185.76H1947.8ZM1953.99 154.525C1958.18 146.092 1963.82 139.766 1970.89 135.496L1969.86 133.784C1962.42 138.274 1956.53 144.908 1952.2 153.635L1953.99 154.525ZM1970.89 135.495C1978.05 131.156 1986.09 128.98 1995.04 128.98V126.98C1985.74 126.98 1977.34 129.244 1969.86 133.785L1970.89 135.495ZM1995.04 128.98C2006.93 128.98 2016.37 131.965 2023.47 137.84L2024.74 136.3C2017.2 130.055 2007.26 126.98 1995.04 126.98V128.98ZM2023.47 137.846C2030.69 143.709 2035.65 151.36 2038.35 160.835L2040.28 160.285C2037.46 150.44 2032.28 142.431 2024.74 136.294L2023.47 137.846ZM2039.12 159.58L2024 162.64L2024.39 164.6L2039.51 161.54L2039.12 159.58ZM2025.14 163.304C2022.75 156.124 2018.9 150.374 2013.57 146.1L2012.32 147.66C2017.31 151.666 2020.96 157.076 2023.25 163.936L2025.14 163.304ZM2013.58 146.108C2008.29 141.755 2002.1 139.58 1995.04 139.58V141.58C2001.65 141.58 2007.4 143.605 2012.31 147.652L2013.58 146.108ZM1995.04 139.58C1988.89 139.58 1983.2 141.353 1978 144.883L1979.13 146.537C1984.01 143.227 1989.3 141.58 1995.04 141.58V139.58ZM1978.01 144.881C1972.84 148.366 1968.71 153.566 1965.59 160.416L1967.42 161.244C1970.42 154.654 1974.33 149.774 1979.12 146.539L1978.01 144.881ZM1965.59 160.416C1962.46 167.302 1960.92 175.763 1960.92 185.76H1962.92C1962.92 175.957 1964.43 167.798 1967.42 161.244L1965.59 160.416ZM1960.92 185.76C1960.92 194.847 1962.13 202.97 1964.57 210.113L1966.46 209.467C1964.1 202.57 1962.92 194.673 1962.92 185.76H1960.92ZM1964.57 210.121C1967.08 217.281 1970.83 222.965 1975.86 227.121L1977.13 225.579C1972.44 221.695 1968.87 216.339 1966.46 209.459L1964.57 210.121ZM1975.86 227.124C1980.99 231.314 1987.41 233.38 1995.04 233.38V231.38C1987.78 231.38 1981.84 229.426 1977.13 225.576L1975.86 227.124ZM1995.04 233.38C2004.16 233.38 2011.5 230.927 2016.95 225.916L2015.6 224.444C2010.61 229.033 2003.79 231.38 1995.04 231.38V233.38ZM2016.95 225.92C2022.46 220.912 2025.2 214.332 2025.2 206.28H2023.2C2023.2 213.828 2020.65 219.848 2015.6 224.44L2016.95 225.92ZM2024.2 207.28H2039.5V205.28H2024.2V207.28ZM2038.5 206.28C2038.5 214.223 2036.67 220.988 2033.07 226.621L2034.76 227.699C2038.6 221.692 2040.5 214.537 2040.5 206.28H2038.5ZM2033.07 226.617C2029.47 232.206 2024.4 236.526 2017.83 239.573L2018.68 241.387C2025.55 238.194 2030.92 233.634 2034.76 227.703L2033.07 226.617ZM2017.83 239.574C2011.33 242.621 2003.74 244.16 1995.04 244.16V246.16C2003.97 246.16 2011.86 244.579 2018.68 241.386L2017.83 239.574Z" fill="#E16F1F"/>
</g>
<g filter="url(#filter9_d_4_214)">
<path d="M1947.73 253L1985.7 349.87L1937.52 338.601L1934.85 378.38L2011.08 414.612V414.63H2011.09L2074.45 360.753L1947.73 253ZM1940.88 258.837L1821 360.753L1888.66 418.285L1947.73 468.507L2003.22 421.32L1899 386.695L1940.88 258.837Z" fill="#2B3A46"/>
</g>
<defs>
<filter id="filter0_d_4_214" x="1571" y="158.411" width="213.652" height="12" filterUnits="userSpaceOnUse" color-interpolation-filters="sRGB">
<feFlood flood-opacity="0" result="BackgroundImageFix"/>
<feColorMatrix in="SourceAlpha" type="matrix" values="0 0 0 0 0 0 0 0 0 0 0 0 0 0 0 0 0 0 127 0" result="hardAlpha"/>
<feOffset dy="4"/>
<feGaussianBlur stdDeviation="2"/>
<feComposite in2="hardAlpha" operator="out"/>
<feColorMatrix type="matrix" values="0 0 0 0 0 0 0 0 0 0 0 0 0 0 0 0 0 0 0.25 0"/>
<feBlend mode="normal" in2="BackgroundImageFix" result="effect1_dropShadow_4_214"/>
<feBlend mode="normal" in="SourceGraphic" in2="effect1_dropShadow_4_214" result="shape"/>
</filter>
<filter id="filter1_d_4_214" x="2112.35" y="158.411" width="213.652" height="12" filterUnits="userSpaceOnUse" color-interpolation-filters="sRGB">
<feFlood flood-opacity="0" result="BackgroundImageFix"/>
<feColorMatrix in="SourceAlpha" type="matrix" values="0 0 0 0 0 0 0 0 0 0 0 0 0 0 0 0 0 0 127 0" result="hardAlpha"/>
<feOffset dy="4"/>
<feGaussianBlur stdDeviation="2"/>
<feComposite in2="hardAlpha" operator="out"/>
<feColorMatrix type="matrix" values="0 0 0 0 0 0 0 0 0 0 0 0 0 0 0 0 0 0 0.25 0"/>
<feBlend mode="normal" in2="BackgroundImageFix" result="effect1_dropShadow_4_214"/>
<feBlend mode="normal" in="SourceGraphic" in2="effect1_dropShadow_4_214" result="shape"/>
</filter>
<filter id="filter2_d_4_214" x="1767.58" y="0" width="367.891" height="329.877" filterUnits="userSpaceOnUse" color-interpolation-filters="sRGB">
<feFlood flood-opacity="0" result="BackgroundImageFix"/>
<feColorMatrix in="SourceAlpha" type="matrix" values="0 0 0 0 0 0 0 0 0 0 0 0 0 0 0 0 0 0 127 0" result="hardAlpha"/>
<feOffset dy="4"/>
<feGaussianBlur stdDeviation="2"/>
<feComposite in2="hardAlpha" operator="out"/>
<feColorMatrix type="matrix" values="0 0 0 0 0 0 0 0 0 0 0 0 0 0 0 0 0 0 0.25 0"/>
<feBlend mode="normal" in2="BackgroundImageFix" result="effect1_dropShadow_4_214"/>
<feBlend mode="normal" in="SourceGraphic" in2="effect1_dropShadow_4_214" result="shape"/>
</filter>
<filter id="filter3_d_4_214" x="2070.01" y="77.2054" width="213.652" height="12" filterUnits="userSpaceOnUse" color-interpolation-filters="sRGB">
<feFlood flood-opacity="0" result="BackgroundImageFix"/>
<feColorMatrix in="SourceAlpha" type="matrix" values="0 0 0 0 0 0 0 0 0 0 0 0 0 0 0 0 0 0 127 0" result="hardAlpha"/>
<feOffset dy="4"/>
<feGaussianBlur stdDeviation="2"/>
<feComposite in2="hardAlpha" operator="out"/>
<feColorMatrix type="matrix" values="0 0 0 0 0 0 0 0 0 0 0 0 0 0 0 0 0 0 0.25 0"/>
<feBlend mode="normal" in2="BackgroundImageFix" result="effect1_dropShadow_4_214"/>
<feBlend mode="normal" in="SourceGraphic" in2="effect1_dropShadow_4_214" result="shape"/>
</filter>
<filter id="filter4_d_4_214" x="2070.01" y="248.986" width="213.652" height="12" filterUnits="userSpaceOnUse" color-interpolation-filters="sRGB">
<feFlood flood-opacity="0" result="BackgroundImageFix"/>
<feColorMatrix in="SourceAlpha" type="matrix" values="0 0 0 0 0 0 0 0 0 0 0 0 0 0 0 0 0 0 127 0" result="hardAlpha"/>
<feOffset dy="4"/>
<feGaussianBlur stdDeviation="2"/>
<feComposite in2="hardAlpha" operator="out"/>
<feColorMatrix type="matrix" values="0 0 0 0 0 0 0 0 0 0 0 0 0 0 0 0 0 0 0.25 0"/>
<feBlend mode="normal" in2="BackgroundImageFix" result="effect1_dropShadow_4_214"/>
<feBlend mode="normal" in="SourceGraphic" in2="effect1_dropShadow_4_214" result="shape"/>
</filter>
<filter id="filter5_d_4_214" x="1616.36" y="248.986" width="213.652" height="12" filterUnits="userSpaceOnUse" color-interpolation-filters="sRGB">
<feFlood flood-opacity="0" result="BackgroundImageFix"/>
<feColorMatrix in="SourceAlpha" type="matrix" values="0 0 0 0 0 0 0 0 0 0 0 0 0 0 0 0 0 0 127 0" result="hardAlpha"/>
<feOffset dy="4"/>
<feGaussianBlur stdDeviation="2"/>
<feComposite in2="hardAlpha" operator="out"/>
<feColorMatrix type="matrix" values="0 0 0 0 0 0 0 0 0 0 0 0 0 0 0 0 0 0 0.25 0"/>
<feBlend mode="normal" in2="BackgroundImageFix" result="effect1_dropShadow_4_214"/>
<feBlend mode="normal" in="SourceGraphic" in2="effect1_dropShadow_4_214" result="shape"/>
</filter>
<filter id="filter6_d_4_214" x="1628.46" y="52.2191" width="213.652" height="12" filterUnits="userSpaceOnUse" color-interpolation-filters="sRGB">
<feFlood flood-opacity="0" result="BackgroundImageFix"/>
<feColorMatrix in="SourceAlpha" type="matrix" values="0 0 0 0 0 0 0 0 0 0 0 0 0 0 0 0 0 0 127 0" result="hardAlpha"/>
<feOffset dy="4"/>
<feGaussianBlur stdDeviation="2"/>
<feComposite in2="hardAlpha" operator="out"/>
<feColorMatrix type="matrix" values="0 0 0 0 0 0 0 0 0 0 0 0 0 0 0 0 0 0 0.25 0"/>
<feBlend mode="normal" in2="BackgroundImageFix" result="effect1_dropShadow_4_214"/>
<feBlend mode="normal" in="SourceGraphic" in2="effect1_dropShadow_4_214" result="shape"/>
</filter>
<filter id="filter7_d_4_214" x="1887.94" y="55.96" width="64.7002" height="123.2" filterUnits="userSpaceOnUse" color-interpolation-filters="sRGB">
<feFlood flood-opacity="0" result="BackgroundImageFix"/>
<feColorMatrix in="SourceAlpha" type="matrix" values="0 0 0 0 0 0 0 0 0 0 0 0 0 0 0 0 0 0 127 0" result="hardAlpha"/>
<feOffset dy="4"/>
<feGaussianBlur stdDeviation="2"/>
<feComposite in2="hardAlpha" operator="out"/>
<feColorMatrix type="matrix" values="0 0 0 0 0 0 0 0 0 0 0 0 0 0 0 0 0 0 0.25 0"/>
<feBlend mode="normal" in2="BackgroundImageFix" result="effect1_dropShadow_4_214"/>
<feBlend mode="normal" in="SourceGraphic" in2="effect1_dropShadow_4_214" result="shape"/>
</filter>
<filter id="filter8_d_4_214" x="1942.79" y="127.98" width="100.7" height="125.18" filterUnits="userSpaceOnUse" color-interpolation-filters="sRGB">
<feFlood flood-opacity="0" result="BackgroundImageFix"/>
<feColorMatrix in="SourceAlpha" type="matrix" values="0 0 0 0 0 0 0 0 0 0 0 0 0 0 0 0 0 0 127 0" result="hardAlpha"/>
<feOffset dy="4"/>
<feGaussianBlur stdDeviation="2"/>
<feComposite in2="hardAlpha" operator="out"/>
<feColorMatrix type="matrix" values="0 0 0 0 0 0 0 0 0 0 0 0 0 0 0 0 0 0 0.25 0"/>
<feBlend mode="normal" in2="BackgroundImageFix" result="effect1_dropShadow_4_214"/>
<feBlend mode="normal" in="SourceGraphic" in2="effect1_dropShadow_4_214" result="shape"/>
</filter>
<filter id="filter9_d_4_214" x="1817" y="253" width="261.453" height="223.507" filterUnits="userSpaceOnUse" color-interpolation-filters="sRGB">
<feFlood flood-opacity="0" result="BackgroundImageFix"/>
<feColorMatrix in="SourceAlpha" type="matrix" values="0 0 0 0 0 0 0 0 0 0 0 0 0 0 0 0 0 0 127 0" result="hardAlpha"/>
<feOffset dy="4"/>
<feGaussianBlur stdDeviation="2"/>
<feComposite in2="hardAlpha" operator="out"/>
<feColorMatrix type="matrix" values="0 0 0 0 0 0 0 0 0 0 0 0 0 0 0 0 0 0 0.25 0"/>
<feBlend mode="normal" in2="BackgroundImageFix" result="effect1_dropShadow_4_214"/>
<feBlend mode="normal" in="SourceGraphic" in2="effect1_dropShadow_4_214" result="shape"/>
</filter>
</defs>
</svg>
